<?xml version="1.0" encoding="UTF-8"?>
<mxfile host="app.diagrams.net">
  <diagram name="Cat Adoption Architecture" id="sample-id">
    <mxGraphModel dx="1080" dy="720" grid="1" gridSize="10" guides="1" tooltips="1" connect="1" arrows="1" fold="1" page="1" pageScale="1" pageWidth="827" pageHeight="1169">
      <root>
        <mxCell id="0"/>
        <mxCell id="1" parent="0"/>
        <mxCell id="user" value="User" style="shape=actor;whiteSpace=wrap;html=1;" vertex="1" parent="1">
          <mxGeometry x="20" y="80" width="50" height="70" as="geometry"/>
        </mxCell>
        <mxCell id="browser" value="Web Browser (HTML/CSS/JS)" style="shape=process;whiteSpace=wrap;html=1;" vertex="1" parent="1">
          <mxGeometry x="120" y="80" width="160" height="60" as="geometry"/>
        </mxCell>
        <mxCell id="localstorage" value="LocalStorage" style="shape=datastore;whiteSpace=wrap;html=1;" vertex="1" parent="1">
          <mxGeometry x="320" y="80" width="120" height="60" as="geometry"/>
        </mxCell>
        <mxCell id="azure" value="Azure App Service" style="shape=cloud;whiteSpace=wrap;html=1;" vertex="1" parent="1">
          <mxGeometry x="480" y="80" width="140" height="60" as="geometry"/>
        </mxCell>
        <mxCell id="azure-mgmt" value="Azure Management Portal" style="shape=hexagon;whiteSpace=wrap;html=1;" vertex="1" parent="1">
          <mxGeometry x="650" y="80" width="180" height="60" as="geometry"/>
        </mxCell>
        <mxCell id="arrow1" style="endArrow=block;html=1;" edge="1" parent="1" source="user" target="browser">
          <mxGeometry relative="1" as="geometry"/>
        </mxCell>
        <mxCell id="arrow2" style="endArrow=block;html=1;" edge="1" parent="1" source="browser" target="localstorage">
          <mxGeometry relative="1" as="geometry"/>
        </mxCell>
        <mxCell id="arrow3" style="endArrow=block;html=1;" edge="1" parent="1" source="localstorage" target="azure">
          <mxGeometry relative="1" as="geometry"/>
        </mxCell>
        <mxCell id="arrow4" style="endArrow=block;html=1;" edge="1" parent="1" source="azure" target="azure-mgmt">
          <mxGeometry relative="1" as="geometry"/>
        </mxCell>
      </root>
    </mxGraphModel>
  </diagram>
</mxfile>
